<mxfile host="app.diagrams.net" modified="2024-06-11T11:29:02.683Z" agent="Mozilla/5.0 (X11; Linux x86_64) AppleWebKit/537.36 (KHTML, like Gecko) Chrome/125.0.0.0 Safari/537.36" etag="syEXY96J84jfq7fLlI0N" version="24.5.2" type="github">
  <diagram name="Page-1" id="DvHukPqvQMiegL6zhpSA">
    <mxGraphModel dx="928" dy="510" grid="1" gridSize="10" guides="1" tooltips="1" connect="1" arrows="1" fold="1" page="1" pageScale="1" pageWidth="850" pageHeight="1100" math="0" shadow="0">
      <root>
        <mxCell id="0" />
        <mxCell id="1" parent="0" />
        <mxCell id="Wj735dPOVBUxa9d9cgnp-38" style="edgeStyle=orthogonalEdgeStyle;curved=1;rounded=0;orthogonalLoop=1;jettySize=auto;html=1;flowAnimation=1;shadow=1;" edge="1" parent="1" source="Wj735dPOVBUxa9d9cgnp-1">
          <mxGeometry relative="1" as="geometry">
            <mxPoint x="250" y="230" as="targetPoint" />
          </mxGeometry>
        </mxCell>
        <mxCell id="Wj735dPOVBUxa9d9cgnp-1" value="" style="sketch=0;aspect=fixed;pointerEvents=1;shadow=0;dashed=0;html=1;strokeColor=none;labelPosition=center;verticalLabelPosition=bottom;verticalAlign=top;align=center;fillColor=#00188D;shape=mxgraph.mscae.enterprise.workstation_client" vertex="1" parent="1">
          <mxGeometry x="50" y="213" width="80" height="80" as="geometry" />
        </mxCell>
        <mxCell id="Wj735dPOVBUxa9d9cgnp-36" style="edgeStyle=orthogonalEdgeStyle;curved=1;rounded=0;orthogonalLoop=1;jettySize=auto;html=1;flowAnimation=1;shadow=1;" edge="1" parent="1" source="Wj735dPOVBUxa9d9cgnp-3">
          <mxGeometry relative="1" as="geometry">
            <mxPoint x="440" y="230" as="targetPoint" />
          </mxGeometry>
        </mxCell>
        <mxCell id="Wj735dPOVBUxa9d9cgnp-3" value="" style="image;aspect=fixed;html=1;points=[];align=center;fontSize=12;image=img/lib/azure2/general/Storage_Queue.svg;" vertex="1" parent="1">
          <mxGeometry x="260" y="229" width="64" height="52" as="geometry" />
        </mxCell>
        <mxCell id="Wj735dPOVBUxa9d9cgnp-37" style="edgeStyle=orthogonalEdgeStyle;curved=1;rounded=0;orthogonalLoop=1;jettySize=auto;html=1;flowAnimation=1;shadow=1;" edge="1" parent="1" source="Wj735dPOVBUxa9d9cgnp-7">
          <mxGeometry relative="1" as="geometry">
            <mxPoint x="330" y="280" as="targetPoint" />
          </mxGeometry>
        </mxCell>
        <mxCell id="Wj735dPOVBUxa9d9cgnp-7" value="" style="sketch=0;outlineConnect=0;fontColor=#232F3E;gradientColor=none;fillColor=#232F3D;strokeColor=none;dashed=0;verticalLabelPosition=bottom;verticalAlign=top;align=center;html=1;fontSize=12;fontStyle=0;aspect=fixed;pointerEvents=1;shape=mxgraph.aws4.traditional_server;" vertex="1" parent="1">
          <mxGeometry x="454" y="217" width="45" height="78" as="geometry" />
        </mxCell>
        <mxCell id="Wj735dPOVBUxa9d9cgnp-33" style="edgeStyle=orthogonalEdgeStyle;curved=1;rounded=0;orthogonalLoop=1;jettySize=auto;html=1;flowAnimation=1;shadow=1;exitX=-0.044;exitY=0.7;exitDx=0;exitDy=0;exitPerimeter=0;" edge="1" parent="1" source="Wj735dPOVBUxa9d9cgnp-12" target="Wj735dPOVBUxa9d9cgnp-7">
          <mxGeometry relative="1" as="geometry">
            <Array as="points">
              <mxPoint x="685" y="318" />
              <mxPoint x="540" y="318" />
              <mxPoint x="540" y="256" />
            </Array>
          </mxGeometry>
        </mxCell>
        <mxCell id="Wj735dPOVBUxa9d9cgnp-12" value="" style="strokeWidth=2;html=1;shape=mxgraph.flowchart.database;whiteSpace=wrap;" vertex="1" parent="1">
          <mxGeometry x="688" y="288" width="60" height="60" as="geometry" />
        </mxCell>
        <mxCell id="Wj735dPOVBUxa9d9cgnp-14" value="&lt;div&gt;Frontend&lt;/div&gt;(React)" style="text;html=1;align=center;verticalAlign=middle;resizable=0;points=[];autosize=1;strokeColor=none;fillColor=none;" vertex="1" parent="1">
          <mxGeometry x="46" y="304" width="70" height="40" as="geometry" />
        </mxCell>
        <mxCell id="Wj735dPOVBUxa9d9cgnp-15" value="Queue" style="text;html=1;align=center;verticalAlign=middle;resizable=0;points=[];autosize=1;strokeColor=none;fillColor=none;" vertex="1" parent="1">
          <mxGeometry x="260" y="288" width="60" height="30" as="geometry" />
        </mxCell>
        <mxCell id="Wj735dPOVBUxa9d9cgnp-17" value="&lt;span style=&quot;color: rgba(0, 0, 0, 0); font-family: monospace; font-size: 0px; text-align: start;&quot;&gt;%3CmxGraphModel%3E%3Croot%3E%3CmxCell%20id%3D%220%22%2F%3E%3CmxCell%20id%3D%221%22%20parent%3D%220%22%2F%3E%3CmxCell%20id%3D%222%22%20value%3D%22Backend%26lt%3Bdiv%26gt%3B(GO)%26lt%3B%2Fdiv%26gt%3B%22%20style%3D%22text%3Bhtml%3D1%3Balign%3Dcenter%3BverticalAlign%3Dmiddle%3Bresizable%3D0%3Bpoints%3D%5B%5D%3Bautosize%3D1%3BstrokeColor%3Dnone%3BfillColor%3Dnone%3B%22%20vertex%3D%221%22%20parent%3D%221%22%3E%3CmxGeometry%20x%3D%22455%22%20y%3D%22293%22%20width%3D%2270%22%20height%3D%2240%22%20as%3D%22geometry%22%2F%3E%3C%2FmxCell%3E%3C%2Froot%3E%3C%2FmxGraphModel%3E&lt;/span&gt;" style="text;html=1;align=center;verticalAlign=middle;resizable=0;points=[];autosize=1;strokeColor=none;fillColor=none;" vertex="1" parent="1">
          <mxGeometry x="490" y="178" width="20" height="30" as="geometry" />
        </mxCell>
        <mxCell id="Wj735dPOVBUxa9d9cgnp-18" value="Backend&lt;div&gt;(GO)&lt;/div&gt;" style="text;html=1;align=center;verticalAlign=middle;resizable=0;points=[];autosize=1;strokeColor=none;fillColor=none;" vertex="1" parent="1">
          <mxGeometry x="440" y="173" width="70" height="40" as="geometry" />
        </mxCell>
        <mxCell id="Wj735dPOVBUxa9d9cgnp-19" value="gRPC" style="text;html=1;align=center;verticalAlign=middle;resizable=0;points=[];autosize=1;strokeColor=none;fillColor=none;" vertex="1" parent="1">
          <mxGeometry x="445" y="301" width="60" height="30" as="geometry" />
        </mxCell>
        <mxCell id="Wj735dPOVBUxa9d9cgnp-20" value="&lt;div&gt;Database&lt;/div&gt;(MySQL)" style="text;html=1;align=center;verticalAlign=middle;resizable=0;points=[];autosize=1;strokeColor=none;fillColor=none;" vertex="1" parent="1">
          <mxGeometry x="684" y="353" width="70" height="40" as="geometry" />
        </mxCell>
        <mxCell id="Wj735dPOVBUxa9d9cgnp-31" style="edgeStyle=orthogonalEdgeStyle;curved=1;rounded=0;orthogonalLoop=1;jettySize=auto;html=1;flowAnimation=1;shadow=1;" edge="1" parent="1" source="Wj735dPOVBUxa9d9cgnp-26">
          <mxGeometry relative="1" as="geometry">
            <mxPoint x="760" y="330" as="targetPoint" />
            <Array as="points">
              <mxPoint x="840" y="140" />
              <mxPoint x="840" y="330" />
            </Array>
          </mxGeometry>
        </mxCell>
        <mxCell id="Wj735dPOVBUxa9d9cgnp-26" value="" style="image;aspect=fixed;html=1;points=[];align=center;fontSize=12;image=img/lib/azure2/identity/Managed_Identities.svg;" vertex="1" parent="1">
          <mxGeometry x="680" y="107" width="68" height="66" as="geometry" />
        </mxCell>
        <mxCell id="Wj735dPOVBUxa9d9cgnp-28" style="edgeStyle=orthogonalEdgeStyle;curved=1;rounded=0;orthogonalLoop=1;jettySize=auto;html=1;entryX=0;entryY=0.348;entryDx=0;entryDy=0;entryPerimeter=0;flowAnimation=1;shadow=1;" edge="1" parent="1" source="Wj735dPOVBUxa9d9cgnp-7" target="Wj735dPOVBUxa9d9cgnp-26">
          <mxGeometry relative="1" as="geometry">
            <Array as="points">
              <mxPoint x="560" y="256" />
              <mxPoint x="560" y="130" />
            </Array>
          </mxGeometry>
        </mxCell>
        <mxCell id="Wj735dPOVBUxa9d9cgnp-34" value="Authentication&lt;div&gt;(Firebase)&lt;/div&gt;" style="text;html=1;align=center;verticalAlign=middle;resizable=0;points=[];autosize=1;strokeColor=none;fillColor=none;" vertex="1" parent="1">
          <mxGeometry x="668" y="73" width="100" height="40" as="geometry" />
        </mxCell>
        <mxCell id="Wj735dPOVBUxa9d9cgnp-39" style="edgeStyle=orthogonalEdgeStyle;curved=1;rounded=0;orthogonalLoop=1;jettySize=auto;html=1;entryX=1.015;entryY=0.754;entryDx=0;entryDy=0;entryPerimeter=0;flowAnimation=1;shadow=1;" edge="1" parent="1" source="Wj735dPOVBUxa9d9cgnp-3" target="Wj735dPOVBUxa9d9cgnp-1">
          <mxGeometry relative="1" as="geometry" />
        </mxCell>
      </root>
    </mxGraphModel>
  </diagram>
</mxfile>
